<svg width="40" height="40" viewBox="0 0 40 40" fill="none" xmlns="http://www.w3.org/2000/svg">
<mask id="mask0_274_694" style="mask-type:luminance" maskUnits="userSpaceOnUse" x="0" y="0" width="40" height="40">
<path d="M40 0H0V40H40V0Z" fill="white"/>
</mask>
<g mask="url(#mask0_274_694)">
<path fill-rule="evenodd" clip-rule="evenodd" d="M26.4272 32.9074C24.4864 36.1422 22.1394 37.6 20 37.6C17.8605 37.6 15.5136 36.1422 13.5727 32.9074C11.6605 29.7204 10.4 25.1626 10.4 20C10.4 14.8373 11.6605 10.2796 13.5727 7.09266C15.5136 3.8579 17.8605 2.4 20 2.4C22.1394 2.4 24.4864 3.8579 26.4272 7.09266C28.3394 10.2796 29.6 14.8373 29.6 20C29.6 25.1626 28.3394 29.7204 26.4272 32.9074ZM40 20C40 8.9543 31.0456 0 20 0C8.9543 0 0 8.9543 0 20C0 31.0456 8.9543 40 20 40C31.0456 40 40 31.0456 40 20ZM2.4 20C2.4 27.186 6.70652 33.366 12.8795 36.1C9.91964 32.4578 8 26.6026 8 20C8 13.3975 9.91964 7.54216 12.8795 3.8999C6.70652 6.63402 2.4 12.8141 2.4 20ZM37.6 20C37.6 27.186 33.2934 33.366 27.1206 36.1C30.0804 32.4578 32 26.6026 32 20C32 13.3975 30.0804 7.54216 27.1206 3.8999C33.2934 6.63402 37.6 12.8141 37.6 20ZM20 22.2C21.215 22.2 22.2 21.215 22.2 20C22.2 18.785 21.215 17.8 20 17.8C18.785 17.8 17.8 18.785 17.8 20C17.8 21.215 18.785 22.2 20 22.2Z" fill="#3D3D3D"/>
</g>
</svg>
